<svg width="192" height="850" viewBox="0 0 192 850" fill="none" xmlns="http://www.w3.org/2000/svg">
<g clip-path="url(#clip0_1145_391)">
<rect x="-50.25" y="0.75" width="221.5" height="1091.5" rx="19.25" fill="white" stroke="#E8E8E8" stroke-width="1.5"/>
<path d="M57.9438 200.949H60.6333C60.589 201.779 60.3621 202.513 59.9526 203.149C59.5487 203.78 58.987 204.275 58.2676 204.635C57.5482 204.989 56.6932 205.166 55.7026 205.166C54.9113 205.166 54.203 205.03 53.5776 204.759C52.9523 204.488 52.4211 204.101 51.9839 203.597C51.5522 203.088 51.2202 202.477 50.9878 201.763C50.7609 201.043 50.6475 200.233 50.6475 199.331V198.592C50.6475 197.69 50.7664 196.879 51.0044 196.16C51.2424 195.44 51.5827 194.826 52.0254 194.317C52.4681 193.808 52.9993 193.418 53.6191 193.146C54.2389 192.875 54.9307 192.74 55.6943 192.74C56.7236 192.74 57.5924 192.925 58.3008 193.296C59.0091 193.667 59.557 194.176 59.9443 194.823C60.3372 195.471 60.5724 196.209 60.6499 197.04H57.9521C57.93 196.569 57.8415 196.174 57.6865 195.853C57.5316 195.526 57.2936 195.28 56.9727 195.114C56.6517 194.948 56.2256 194.865 55.6943 194.865C55.307 194.865 54.9666 194.937 54.6733 195.081C54.3856 195.224 54.1449 195.449 53.9512 195.753C53.763 196.057 53.6219 196.445 53.5278 196.915C53.4338 197.38 53.3867 197.933 53.3867 198.575V199.331C53.3867 199.967 53.4282 200.518 53.5112 200.982C53.5942 201.447 53.7271 201.832 53.9097 202.136C54.0978 202.441 54.3385 202.667 54.6318 202.817C54.9251 202.966 55.2821 203.041 55.7026 203.041C56.1841 203.041 56.5853 202.966 56.9062 202.817C57.2272 202.662 57.4735 202.43 57.645 202.12C57.8166 201.81 57.9162 201.42 57.9438 200.949ZM64.5347 192.25V205H61.9448V192.25H64.5347ZM64.1943 200.194L63.5469 200.21C63.5469 199.58 63.6243 199.001 63.7793 198.476C63.9398 197.944 64.1667 197.482 64.46 197.089C64.7533 196.696 65.1047 196.392 65.5142 196.176C65.9292 195.96 66.3857 195.853 66.8838 195.853C67.3265 195.853 67.7305 195.916 68.0957 196.043C68.4609 196.171 68.7764 196.373 69.042 196.649C69.3076 196.926 69.5124 197.289 69.6562 197.737C69.8001 198.185 69.8721 198.73 69.8721 199.372V205H67.2656V199.355C67.2656 198.974 67.2103 198.675 67.0996 198.459C66.9945 198.243 66.8395 198.091 66.6348 198.002C66.4355 197.914 66.1921 197.87 65.9043 197.87C65.5667 197.87 65.2873 197.931 65.0659 198.052C64.8446 198.168 64.6702 198.332 64.543 198.542C64.4157 198.752 64.3244 198.999 64.269 199.281C64.2192 199.563 64.1943 199.867 64.1943 200.194ZM74.2964 196.019V205H71.6982V196.019H74.2964ZM71.5405 193.694C71.5405 193.318 71.6733 193.011 71.939 192.773C72.2046 192.529 72.5532 192.408 72.9849 192.408C73.4165 192.408 73.7651 192.529 74.0308 192.773C74.3019 193.011 74.4375 193.318 74.4375 193.694C74.4375 194.065 74.3019 194.372 74.0308 194.616C73.7651 194.854 73.4165 194.973 72.9849 194.973C72.5532 194.973 72.2046 194.854 71.939 194.616C71.6733 194.372 71.5405 194.065 71.5405 193.694ZM78.895 192.25V205H76.2969V192.25H78.895ZM85.9922 202.991V192.25H88.5986V205H86.2578L85.9922 202.991ZM80.3975 200.617V200.443C80.3975 199.762 80.4722 199.142 80.6216 198.583C80.7765 198.019 81.0007 197.535 81.2939 197.131C81.5928 196.721 81.9608 196.406 82.3979 196.185C82.8351 195.963 83.3359 195.853 83.9004 195.853C84.4206 195.853 84.8743 195.969 85.2617 196.201C85.6491 196.428 85.9784 196.749 86.2495 197.164C86.5262 197.574 86.7503 198.058 86.9219 198.617C87.0934 199.17 87.2235 199.771 87.312 200.418V200.717C87.229 201.337 87.099 201.915 86.9219 202.452C86.7503 202.988 86.5262 203.462 86.2495 203.871C85.9784 204.275 85.6463 204.593 85.2534 204.826C84.866 205.053 84.4095 205.166 83.8838 205.166C83.3193 205.166 82.8185 205.053 82.3813 204.826C81.9497 204.599 81.5872 204.281 81.2939 203.871C81.0007 203.462 80.7765 202.98 80.6216 202.427C80.4722 201.873 80.3975 201.27 80.3975 200.617ZM82.9873 200.443V200.617C82.9873 200.971 83.0122 201.301 83.062 201.605C83.1174 201.909 83.2059 202.178 83.3276 202.41C83.4494 202.643 83.6099 202.825 83.8091 202.958C84.0083 203.085 84.2518 203.149 84.5396 203.149C84.9269 203.149 85.2451 203.06 85.4941 202.883C85.7432 202.701 85.9313 202.449 86.0586 202.128C86.1859 201.807 86.2523 201.433 86.2578 201.007V200.136C86.2578 199.782 86.2218 199.463 86.1499 199.181C86.078 198.899 85.9701 198.661 85.8262 198.467C85.6878 198.274 85.5135 198.127 85.3032 198.027C85.0929 197.922 84.8439 197.87 84.5562 197.87C84.2739 197.87 84.0332 197.936 83.834 198.069C83.6348 198.196 83.4715 198.376 83.3442 198.608C83.2225 198.841 83.1312 199.115 83.0703 199.43C83.015 199.74 82.9873 200.078 82.9873 200.443ZM92.9233 198.11V205H90.3335V196.019H92.7656L92.9233 198.11ZM95.6045 195.952L95.563 198.368C95.4523 198.351 95.3084 198.337 95.1313 198.326C94.9543 198.31 94.8021 198.301 94.6748 198.301C94.3428 198.301 94.055 198.343 93.8115 198.426C93.5736 198.503 93.3743 198.619 93.2139 198.774C93.0589 198.929 92.9427 199.123 92.8652 199.355C92.7878 199.582 92.749 199.845 92.749 200.144L92.2593 199.903C92.2593 199.311 92.3174 198.769 92.4336 198.276C92.5498 197.784 92.7186 197.358 92.9399 196.998C93.1613 196.633 93.4325 196.351 93.7534 196.151C94.0744 195.952 94.4396 195.853 94.8491 195.853C94.9819 195.853 95.1175 195.861 95.2559 195.877C95.3942 195.894 95.5104 195.919 95.6045 195.952ZM100.734 205.166C100.021 205.166 99.3813 205.053 98.8169 204.826C98.2524 204.599 97.7738 204.286 97.3809 203.888C96.9935 203.484 96.6974 203.019 96.4927 202.493C96.2879 201.967 96.1855 201.406 96.1855 200.808V200.493C96.1855 199.823 96.2796 199.206 96.4678 198.642C96.6559 198.077 96.9299 197.587 97.2896 197.172C97.6548 196.752 98.103 196.428 98.6343 196.201C99.1655 195.969 99.7715 195.853 100.452 195.853C101.089 195.853 101.656 195.958 102.154 196.168C102.652 196.373 103.072 196.669 103.416 197.056C103.759 197.438 104.019 197.9 104.196 198.442C104.378 198.979 104.47 199.582 104.47 200.252V201.314H97.2314V199.646H101.93V199.447C101.93 199.131 101.872 198.855 101.755 198.617C101.645 198.379 101.479 198.196 101.257 198.069C101.042 197.936 100.768 197.87 100.436 197.87C100.12 197.87 99.8573 197.936 99.647 198.069C99.4367 198.202 99.2679 198.39 99.1406 198.633C99.0189 198.871 98.9303 199.151 98.875 199.472C98.8197 199.787 98.792 200.127 98.792 200.493V200.808C98.792 201.157 98.839 201.475 98.9331 201.763C99.0272 202.05 99.1655 202.297 99.3481 202.501C99.5308 202.706 99.7521 202.867 100.012 202.983C100.272 203.099 100.568 203.157 100.9 203.157C101.31 203.157 101.7 203.08 102.071 202.925C102.442 202.764 102.763 202.515 103.034 202.178L104.246 203.564C104.063 203.83 103.806 204.087 103.474 204.336C103.147 204.579 102.754 204.779 102.295 204.934C101.836 205.089 101.315 205.166 100.734 205.166ZM108.271 197.936V205H105.673V196.019H108.114L108.271 197.936ZM107.931 200.194L107.284 200.21C107.284 199.535 107.367 198.929 107.533 198.393C107.699 197.856 107.934 197.399 108.238 197.023C108.548 196.641 108.916 196.351 109.342 196.151C109.774 195.952 110.25 195.853 110.77 195.853C111.191 195.853 111.575 195.913 111.924 196.035C112.272 196.157 112.571 196.353 112.82 196.625C113.075 196.89 113.269 197.244 113.401 197.687C113.534 198.124 113.601 198.664 113.601 199.306V205H110.994V199.297C110.994 198.921 110.942 198.631 110.836 198.426C110.731 198.221 110.576 198.077 110.372 197.994C110.172 197.911 109.929 197.87 109.641 197.87C109.337 197.87 109.077 197.931 108.861 198.052C108.645 198.168 108.468 198.332 108.33 198.542C108.191 198.752 108.089 198.999 108.022 199.281C107.962 199.563 107.931 199.867 107.931 200.194ZM127.546 202.908V205H121.445V202.908H127.546ZM122.366 192.914V205H119.66V192.914H122.366ZM131.472 196.019V205H128.874V196.019H131.472ZM128.716 193.694C128.716 193.318 128.849 193.011 129.115 192.773C129.38 192.529 129.729 192.408 130.161 192.408C130.592 192.408 130.941 192.529 131.207 192.773C131.478 193.011 131.613 193.318 131.613 193.694C131.613 194.065 131.478 194.372 131.207 194.616C130.941 194.854 130.592 194.973 130.161 194.973C129.729 194.973 129.38 194.854 129.115 194.616C128.849 194.372 128.716 194.065 128.716 193.694ZM138.121 202.501C138.121 202.335 138.069 202.189 137.963 202.062C137.864 201.934 137.681 201.818 137.416 201.713C137.155 201.608 136.787 201.503 136.312 201.397C135.863 201.303 135.445 201.182 135.058 201.032C134.671 200.877 134.333 200.692 134.045 200.476C133.758 200.255 133.534 199.995 133.373 199.696C133.213 199.391 133.132 199.046 133.132 198.658C133.132 198.282 133.213 197.925 133.373 197.587C133.539 197.25 133.777 196.951 134.087 196.691C134.402 196.431 134.784 196.226 135.232 196.077C135.686 195.927 136.201 195.853 136.776 195.853C137.568 195.853 138.251 195.977 138.827 196.226C139.402 196.47 139.845 196.813 140.155 197.255C140.465 197.693 140.62 198.193 140.62 198.758H138.03C138.03 198.525 137.986 198.323 137.897 198.152C137.808 197.98 137.673 197.847 137.49 197.753C137.308 197.654 137.067 197.604 136.768 197.604C136.536 197.604 136.331 197.646 136.154 197.729C135.982 197.806 135.847 197.914 135.747 198.052C135.653 198.191 135.606 198.351 135.606 198.534C135.606 198.661 135.634 198.777 135.689 198.882C135.75 198.982 135.841 199.076 135.963 199.165C136.09 199.248 136.253 199.322 136.453 199.389C136.657 199.455 136.906 199.519 137.2 199.58C137.825 199.696 138.395 199.859 138.91 200.069C139.43 200.28 139.845 200.57 140.155 200.941C140.47 201.312 140.628 201.801 140.628 202.41C140.628 202.809 140.537 203.174 140.354 203.506C140.177 203.838 139.92 204.128 139.582 204.377C139.244 204.626 138.84 204.82 138.37 204.958C137.9 205.097 137.368 205.166 136.776 205.166C135.93 205.166 135.213 205.014 134.626 204.709C134.04 204.405 133.597 204.023 133.298 203.564C133.005 203.099 132.858 202.623 132.858 202.136H135.291C135.302 202.435 135.376 202.679 135.515 202.867C135.659 203.055 135.844 203.193 136.071 203.282C136.298 203.365 136.552 203.406 136.834 203.406C137.117 203.406 137.352 203.368 137.54 203.29C137.728 203.213 137.872 203.107 137.972 202.975C138.071 202.836 138.121 202.679 138.121 202.501ZM146.638 196.019V197.836H141.309V196.019H146.638ZM142.529 193.794H145.127V202.186C145.127 202.435 145.157 202.626 145.218 202.759C145.279 202.892 145.379 202.986 145.517 203.041C145.655 203.091 145.833 203.116 146.048 203.116C146.203 203.116 146.336 203.11 146.447 203.099C146.557 203.088 146.66 203.074 146.754 203.058V204.934C146.533 205.006 146.297 205.061 146.048 205.1C145.799 205.144 145.528 205.166 145.235 205.166C144.676 205.166 144.192 205.075 143.782 204.892C143.378 204.709 143.068 204.422 142.853 204.029C142.637 203.63 142.529 203.113 142.529 202.477V193.794Z" fill="#262626"/>
<path d="M51.291 234.914H53.5322L56.4375 243.555L59.3345 234.914H61.5757L57.3423 247H55.5244L51.291 234.914ZM49.9961 234.914H52.2788L52.7021 243.871V247H49.9961V234.914ZM60.5879 234.914H62.8789V247H60.1646V243.871L60.5879 234.914ZM67.4609 245.962L69.8101 238.019H72.5991L68.9883 248.345C68.9108 248.572 68.8057 248.815 68.6729 249.075C68.5456 249.335 68.3713 249.584 68.1499 249.822C67.9341 250.06 67.6574 250.254 67.3198 250.403C66.9823 250.553 66.5672 250.627 66.0747 250.627C65.8257 250.627 65.632 250.614 65.4937 250.586C65.3608 250.564 65.1838 250.525 64.9624 250.47L64.9541 248.585C65.026 248.585 65.0897 248.585 65.145 248.585C65.2059 248.591 65.2668 248.594 65.3276 248.594C65.6375 248.594 65.8866 248.561 66.0747 248.494C66.2684 248.428 66.4178 248.328 66.5229 248.195C66.6336 248.068 66.7222 247.905 66.7886 247.706L67.4609 245.962ZM66.6724 238.019L68.5317 244.41L68.8472 247.158L67.0957 247.249L63.8833 238.019H66.6724ZM80.269 239.745V250.453H77.6792V238.019H80.0947L80.269 239.745ZM85.8721 242.41V242.584C85.8721 243.237 85.7974 243.843 85.6479 244.402C85.4985 244.955 85.2744 245.439 84.9756 245.854C84.6823 246.27 84.3198 246.593 83.8882 246.826C83.4565 247.053 82.9557 247.166 82.3857 247.166C81.8434 247.166 81.373 247.053 80.9746 246.826C80.5817 246.593 80.2497 246.272 79.9785 245.863C79.7129 245.448 79.4971 244.975 79.3311 244.443C79.1706 243.907 79.0461 243.334 78.9575 242.725V242.385C79.0461 241.737 79.1733 241.137 79.3394 240.583C79.5054 240.03 79.7212 239.551 79.9868 239.147C80.2524 238.738 80.5817 238.42 80.9746 238.193C81.3675 237.966 81.8351 237.853 82.3774 237.853C82.9419 237.853 83.4427 237.96 83.8799 238.176C84.3171 238.392 84.6823 238.702 84.9756 239.106C85.2744 239.504 85.4985 239.983 85.6479 240.542C85.7974 241.101 85.8721 241.723 85.8721 242.41ZM83.2739 242.584V242.41C83.2739 242.044 83.2463 241.71 83.1909 241.405C83.1356 241.095 83.047 240.827 82.9253 240.6C82.8035 240.368 82.6431 240.188 82.4438 240.061C82.2446 239.933 82.0011 239.87 81.7134 239.87C81.4035 239.87 81.1406 239.919 80.9248 240.019C80.709 240.119 80.5347 240.265 80.4019 240.459C80.269 240.647 80.1722 240.88 80.1113 241.156C80.056 241.433 80.0256 241.748 80.02 242.103V243.016C80.0256 243.431 80.0837 243.801 80.1943 244.128C80.3105 244.449 80.4904 244.701 80.7339 244.883C80.9829 245.06 81.3149 245.149 81.73 245.149C82.0233 245.149 82.2668 245.085 82.4604 244.958C82.6597 244.825 82.8174 244.64 82.9336 244.402C83.0553 244.164 83.1411 243.89 83.1909 243.58C83.2463 243.27 83.2739 242.938 83.2739 242.584ZM92.0063 244.858V241.007C92.0063 240.736 91.9648 240.503 91.8818 240.31C91.7988 240.116 91.6688 239.964 91.4917 239.853C91.3146 239.742 91.085 239.687 90.8027 239.687C90.5648 239.687 90.3573 239.729 90.1802 239.812C90.0086 239.895 89.8758 240.014 89.7817 240.168C89.6932 240.323 89.6489 240.514 89.6489 240.741H87.0591C87.0591 240.337 87.1504 239.961 87.333 239.612C87.5156 239.264 87.7757 238.957 88.1133 238.691C88.4564 238.425 88.8659 238.221 89.3418 238.077C89.8177 237.927 90.3517 237.853 90.9438 237.853C91.6466 237.853 92.272 237.972 92.8198 238.209C93.3732 238.442 93.8104 238.793 94.1313 239.264C94.4523 239.729 94.6128 240.315 94.6128 241.023V244.784C94.6128 245.326 94.6432 245.752 94.7041 246.062C94.7705 246.366 94.8646 246.632 94.9863 246.859V247H92.3716C92.2498 246.74 92.1585 246.419 92.0977 246.037C92.0368 245.65 92.0063 245.257 92.0063 244.858ZM92.3301 241.521L92.3467 242.949H91.0601C90.7723 242.949 90.5233 242.985 90.313 243.057C90.1082 243.129 89.9422 243.229 89.8149 243.356C89.6877 243.478 89.5936 243.622 89.5327 243.788C89.4774 243.948 89.4497 244.125 89.4497 244.319C89.4497 244.501 89.494 244.667 89.5825 244.817C89.6711 244.961 89.7928 245.074 89.9478 245.157C90.1027 245.24 90.2826 245.282 90.4873 245.282C90.8249 245.282 91.1126 245.215 91.3506 245.083C91.5941 244.95 91.7822 244.789 91.915 244.601C92.0479 244.407 92.1143 244.228 92.1143 244.062L92.7368 245.141C92.6372 245.362 92.5155 245.592 92.3716 245.83C92.2277 246.062 92.0451 246.281 91.8237 246.485C91.6024 246.685 91.334 246.848 91.0186 246.975C90.7087 247.102 90.3351 247.166 89.8979 247.166C89.3335 247.166 88.8216 247.053 88.3623 246.826C87.903 246.593 87.535 246.275 87.2583 245.871C86.9871 245.467 86.8516 245.002 86.8516 244.477C86.8516 244.006 86.9373 243.588 87.1089 243.223C87.2804 242.858 87.5378 242.548 87.8809 242.293C88.2295 242.039 88.6667 241.848 89.1924 241.721C89.7181 241.588 90.3324 241.521 91.0352 241.521H92.3301ZM101.976 238.019H104.333V246.676C104.333 247.501 104.145 248.201 103.769 248.776C103.398 249.352 102.88 249.789 102.216 250.088C101.552 250.387 100.775 250.536 99.8838 250.536C99.4964 250.536 99.0924 250.484 98.6719 250.378C98.2513 250.279 97.8556 250.127 97.4849 249.922C97.1141 249.723 96.8042 249.468 96.5552 249.158L97.6592 247.631C97.9137 247.919 98.2181 248.151 98.5723 248.328C98.9264 248.511 99.3304 248.602 99.7842 248.602C100.199 248.602 100.551 248.527 100.838 248.378C101.126 248.229 101.345 248.01 101.494 247.722C101.649 247.434 101.727 247.086 101.727 246.676V240.119L101.976 238.019ZM95.9741 242.617V242.443C95.9741 241.762 96.0571 241.142 96.2231 240.583C96.3892 240.019 96.6299 239.535 96.9453 239.131C97.2663 238.721 97.6509 238.406 98.0991 238.185C98.5529 237.963 99.062 237.853 99.6265 237.853C100.235 237.853 100.739 237.969 101.137 238.201C101.536 238.428 101.859 238.749 102.108 239.164C102.357 239.574 102.554 240.058 102.698 240.617C102.842 241.17 102.958 241.771 103.046 242.418V242.717C102.958 243.337 102.831 243.915 102.665 244.452C102.499 244.988 102.283 245.462 102.017 245.871C101.751 246.275 101.419 246.593 101.021 246.826C100.628 247.053 100.158 247.166 99.6099 247.166C99.0509 247.166 98.5474 247.053 98.0991 246.826C97.6509 246.599 97.2663 246.281 96.9453 245.871C96.6299 245.462 96.3892 244.98 96.2231 244.427C96.0571 243.873 95.9741 243.27 95.9741 242.617ZM98.564 242.443V242.617C98.564 242.971 98.5972 243.301 98.6636 243.605C98.7355 243.909 98.8407 244.178 98.979 244.41C99.1229 244.643 99.3 244.825 99.5103 244.958C99.7261 245.085 99.9779 245.149 100.266 245.149C100.686 245.149 101.027 245.06 101.287 244.883C101.552 244.701 101.746 244.449 101.868 244.128C101.995 243.807 102.061 243.433 102.067 243.007V242.136C102.067 241.782 102.031 241.463 101.959 241.181C101.887 240.899 101.779 240.661 101.635 240.467C101.497 240.274 101.314 240.127 101.087 240.027C100.866 239.922 100.598 239.87 100.282 239.87C100 239.87 99.751 239.936 99.5352 240.069C99.3193 240.196 99.1395 240.376 98.9956 240.608C98.8517 240.841 98.7438 241.115 98.6719 241.43C98.5999 241.74 98.564 242.078 98.564 242.443ZM110.293 247.166C109.579 247.166 108.94 247.053 108.375 246.826C107.811 246.599 107.332 246.286 106.939 245.888C106.552 245.484 106.256 245.019 106.051 244.493C105.847 243.967 105.744 243.406 105.744 242.808V242.493C105.744 241.823 105.838 241.206 106.026 240.642C106.215 240.077 106.488 239.587 106.848 239.172C107.213 238.752 107.662 238.428 108.193 238.201C108.724 237.969 109.33 237.853 110.011 237.853C110.647 237.853 111.214 237.958 111.712 238.168C112.21 238.373 112.631 238.669 112.974 239.056C113.317 239.438 113.577 239.9 113.754 240.442C113.937 240.979 114.028 241.582 114.028 242.252V243.314H106.79V241.646H111.488V241.447C111.488 241.131 111.43 240.855 111.314 240.617C111.203 240.379 111.037 240.196 110.816 240.069C110.6 239.936 110.326 239.87 109.994 239.87C109.679 239.87 109.416 239.936 109.206 240.069C108.995 240.202 108.826 240.39 108.699 240.633C108.577 240.871 108.489 241.151 108.434 241.472C108.378 241.787 108.351 242.127 108.351 242.493V242.808C108.351 243.157 108.398 243.475 108.492 243.763C108.586 244.05 108.724 244.297 108.907 244.501C109.089 244.706 109.311 244.867 109.571 244.983C109.831 245.099 110.127 245.157 110.459 245.157C110.868 245.157 111.259 245.08 111.629 244.925C112 244.764 112.321 244.515 112.592 244.178L113.804 245.564C113.622 245.83 113.364 246.087 113.032 246.336C112.706 246.579 112.313 246.779 111.854 246.934C111.394 247.089 110.874 247.166 110.293 247.166Z" fill="#969696"/>
<path d="M56.2632 285.812C56.2632 285.608 56.2327 285.425 56.1719 285.265C56.111 285.099 56.0003 284.946 55.8398 284.808C55.6794 284.67 55.4525 284.531 55.1592 284.393C54.8659 284.249 54.4813 284.103 54.0054 283.953C53.4631 283.776 52.9456 283.577 52.4531 283.355C51.9661 283.129 51.5317 282.866 51.1499 282.567C50.7681 282.268 50.4665 281.919 50.2451 281.521C50.0293 281.123 49.9214 280.658 49.9214 280.126C49.9214 279.612 50.0348 279.147 50.2617 278.732C50.4886 278.317 50.8068 277.963 51.2163 277.669C51.6258 277.371 52.1073 277.144 52.6606 276.989C53.214 276.828 53.8228 276.748 54.4868 276.748C55.3722 276.748 56.1497 276.906 56.8193 277.221C57.4945 277.531 58.0202 277.968 58.3965 278.533C58.7728 279.092 58.9609 279.742 58.9609 280.483H56.2715C56.2715 280.157 56.2023 279.869 56.064 279.62C55.9312 279.366 55.7264 279.166 55.4497 279.022C55.1785 278.879 54.8382 278.807 54.4287 278.807C54.0303 278.807 53.6955 278.868 53.4243 278.989C53.1587 279.105 52.9567 279.266 52.8184 279.471C52.6855 279.675 52.6191 279.9 52.6191 280.143C52.6191 280.337 52.6689 280.514 52.7686 280.674C52.8737 280.829 53.0231 280.976 53.2168 281.114C53.416 281.247 53.6595 281.374 53.9473 281.496C54.235 281.618 54.5643 281.734 54.9351 281.845C55.5825 282.049 56.1553 282.276 56.6533 282.525C57.1569 282.774 57.5802 283.057 57.9233 283.372C58.2664 283.688 58.5238 284.044 58.6953 284.443C58.8724 284.841 58.9609 285.292 58.9609 285.796C58.9609 286.333 58.8558 286.809 58.6455 287.224C58.4408 287.639 58.1419 287.993 57.749 288.286C57.3617 288.574 56.8968 288.792 56.3545 288.942C55.8122 289.091 55.2062 289.166 54.5366 289.166C53.9279 289.166 53.3275 289.089 52.7354 288.934C52.1432 288.773 51.6064 288.53 51.125 288.203C50.6491 287.877 50.2673 287.462 49.9795 286.958C49.6973 286.449 49.5562 285.846 49.5562 285.148H52.2622C52.2622 285.514 52.3148 285.824 52.4199 286.078C52.5251 286.327 52.6745 286.529 52.8682 286.684C53.0674 286.839 53.3081 286.95 53.5903 287.016C53.8726 287.083 54.188 287.116 54.5366 287.116C54.9406 287.116 55.2671 287.06 55.5161 286.95C55.7707 286.833 55.9588 286.676 56.0806 286.477C56.2023 286.277 56.2632 286.056 56.2632 285.812ZM64.6553 289.166C63.9414 289.166 63.3022 289.053 62.7378 288.826C62.1733 288.599 61.6947 288.286 61.3018 287.888C60.9144 287.484 60.6183 287.019 60.4136 286.493C60.2088 285.967 60.1064 285.406 60.1064 284.808V284.493C60.1064 283.823 60.2005 283.206 60.3887 282.642C60.5768 282.077 60.8507 281.587 61.2104 281.172C61.5757 280.752 62.0239 280.428 62.5552 280.201C63.0864 279.969 63.6924 279.853 64.373 279.853C65.0094 279.853 65.5767 279.958 66.0747 280.168C66.5728 280.373 66.9933 280.669 67.3364 281.056C67.6795 281.438 67.9396 281.9 68.1167 282.442C68.2993 282.979 68.3906 283.582 68.3906 284.252V285.314H61.1523V283.646H65.8506V283.447C65.8506 283.131 65.7925 282.855 65.6763 282.617C65.5656 282.379 65.3996 282.196 65.1782 282.069C64.9624 281.936 64.6885 281.87 64.3564 281.87C64.041 281.87 63.7782 281.936 63.5679 282.069C63.3576 282.202 63.1888 282.39 63.0615 282.633C62.9398 282.871 62.8512 283.151 62.7959 283.472C62.7406 283.787 62.7129 284.127 62.7129 284.493V284.808C62.7129 285.157 62.7599 285.475 62.854 285.763C62.9481 286.05 63.0864 286.297 63.269 286.501C63.4517 286.706 63.673 286.867 63.9331 286.983C64.1932 287.099 64.4893 287.157 64.8213 287.157C65.2308 287.157 65.6209 287.08 65.9917 286.925C66.3625 286.764 66.6834 286.515 66.9546 286.178L68.1665 287.564C67.9839 287.83 67.7266 288.087 67.3945 288.336C67.068 288.579 66.6751 288.779 66.2158 288.934C65.7565 289.089 65.2363 289.166 64.6553 289.166ZM74.2178 280.019V281.836H68.8887V280.019H74.2178ZM70.1089 277.794H72.707V286.186C72.707 286.435 72.7375 286.626 72.7983 286.759C72.8592 286.892 72.9588 286.986 73.0972 287.041C73.2355 287.091 73.4126 287.116 73.6284 287.116C73.7834 287.116 73.9162 287.11 74.0269 287.099C74.1375 287.088 74.2399 287.074 74.334 287.058V288.934C74.1126 289.006 73.8774 289.061 73.6284 289.1C73.3794 289.144 73.1082 289.166 72.8149 289.166C72.256 289.166 71.7718 289.075 71.3623 288.892C70.9583 288.709 70.6484 288.422 70.4326 288.029C70.2168 287.63 70.1089 287.113 70.1089 286.477V277.794ZM80.0283 280.019V281.836H74.6992V280.019H80.0283ZM75.9194 277.794H78.5176V286.186C78.5176 286.435 78.548 286.626 78.6089 286.759C78.6698 286.892 78.7694 286.986 78.9077 287.041C79.0461 287.091 79.2231 287.116 79.439 287.116C79.5939 287.116 79.7267 287.11 79.8374 287.099C79.9481 287.088 80.0505 287.074 80.1445 287.058V288.934C79.9232 289.006 79.688 289.061 79.439 289.1C79.1899 289.144 78.9188 289.166 78.6255 289.166C78.0666 289.166 77.5824 289.075 77.1729 288.892C76.7689 288.709 76.459 288.422 76.2432 288.029C76.0273 287.63 75.9194 287.113 75.9194 286.477V277.794ZM84.0044 280.019V289H81.4062V280.019H84.0044ZM81.2485 277.694C81.2485 277.318 81.3813 277.011 81.647 276.773C81.9126 276.529 82.2612 276.408 82.6929 276.408C83.1245 276.408 83.4731 276.529 83.7388 276.773C84.0099 277.011 84.1455 277.318 84.1455 277.694C84.1455 278.065 84.0099 278.372 83.7388 278.616C83.4731 278.854 83.1245 278.973 82.6929 278.973C82.2612 278.973 81.9126 278.854 81.647 278.616C81.3813 278.372 81.2485 278.065 81.2485 277.694ZM88.4121 281.936V289H85.814V280.019H88.2544L88.4121 281.936ZM88.0718 284.194L87.4243 284.21C87.4243 283.535 87.5073 282.929 87.6733 282.393C87.8394 281.856 88.0745 281.399 88.3789 281.023C88.6888 280.641 89.0568 280.351 89.4829 280.151C89.9146 279.952 90.3905 279.853 90.9106 279.853C91.3312 279.853 91.7158 279.913 92.0645 280.035C92.4131 280.157 92.7119 280.353 92.9609 280.625C93.2155 280.89 93.4092 281.244 93.542 281.687C93.6748 282.124 93.7412 282.664 93.7412 283.306V289H91.1348V283.297C91.1348 282.921 91.0822 282.631 90.9771 282.426C90.8719 282.221 90.717 282.077 90.5122 281.994C90.313 281.911 90.0695 281.87 89.7817 281.87C89.4774 281.87 89.2173 281.931 89.0015 282.052C88.7856 282.168 88.6086 282.332 88.4702 282.542C88.3319 282.752 88.2295 282.999 88.1631 283.281C88.1022 283.563 88.0718 283.867 88.0718 284.194ZM101.096 280.019H103.453V288.676C103.453 289.501 103.265 290.201 102.889 290.776C102.518 291.352 102 291.789 101.336 292.088C100.672 292.387 99.8949 292.536 99.0039 292.536C98.6165 292.536 98.2126 292.484 97.792 292.378C97.3714 292.279 96.9757 292.127 96.605 291.922C96.2342 291.723 95.9243 291.468 95.6753 291.158L96.7793 289.631C97.0339 289.919 97.3382 290.151 97.6924 290.328C98.0465 290.511 98.4505 290.602 98.9043 290.602C99.3193 290.602 99.6707 290.527 99.9585 290.378C100.246 290.229 100.465 290.01 100.614 289.722C100.769 289.434 100.847 289.086 100.847 288.676V282.119L101.096 280.019ZM95.0942 284.617V284.443C95.0942 283.762 95.1772 283.142 95.3433 282.583C95.5093 282.019 95.75 281.535 96.0654 281.131C96.3864 280.721 96.771 280.406 97.2192 280.185C97.673 279.963 98.1821 279.853 98.7466 279.853C99.3553 279.853 99.8589 279.969 100.257 280.201C100.656 280.428 100.979 280.749 101.229 281.164C101.478 281.574 101.674 282.058 101.818 282.617C101.962 283.17 102.078 283.771 102.167 284.418V284.717C102.078 285.337 101.951 285.915 101.785 286.452C101.619 286.988 101.403 287.462 101.137 287.871C100.872 288.275 100.54 288.593 100.141 288.826C99.7482 289.053 99.2778 289.166 98.73 289.166C98.1711 289.166 97.6675 289.053 97.2192 288.826C96.771 288.599 96.3864 288.281 96.0654 287.871C95.75 287.462 95.5093 286.98 95.3433 286.427C95.1772 285.873 95.0942 285.27 95.0942 284.617ZM97.6841 284.443V284.617C97.6841 284.971 97.7173 285.301 97.7837 285.605C97.8556 285.909 97.9608 286.178 98.0991 286.41C98.243 286.643 98.4201 286.825 98.6304 286.958C98.8462 287.085 99.098 287.149 99.3857 287.149C99.8063 287.149 100.147 287.06 100.407 286.883C100.672 286.701 100.866 286.449 100.988 286.128C101.115 285.807 101.181 285.433 101.187 285.007V284.136C101.187 283.782 101.151 283.463 101.079 283.181C101.007 282.899 100.899 282.661 100.755 282.467C100.617 282.274 100.434 282.127 100.208 282.027C99.9862 281.922 99.7178 281.87 99.4023 281.87C99.1201 281.87 98.8711 281.936 98.6553 282.069C98.4395 282.196 98.2596 282.376 98.1157 282.608C97.9718 282.841 97.8639 283.115 97.792 283.43C97.7201 283.74 97.6841 284.078 97.6841 284.443ZM109.961 286.501C109.961 286.335 109.908 286.189 109.803 286.062C109.704 285.934 109.521 285.818 109.255 285.713C108.995 285.608 108.627 285.503 108.151 285.397C107.703 285.303 107.285 285.182 106.898 285.032C106.511 284.877 106.173 284.692 105.885 284.476C105.597 284.255 105.373 283.995 105.213 283.696C105.052 283.391 104.972 283.046 104.972 282.658C104.972 282.282 105.052 281.925 105.213 281.587C105.379 281.25 105.617 280.951 105.927 280.691C106.242 280.431 106.624 280.226 107.072 280.077C107.526 279.927 108.041 279.853 108.616 279.853C109.408 279.853 110.091 279.977 110.667 280.226C111.242 280.47 111.685 280.813 111.995 281.255C112.305 281.693 112.459 282.193 112.459 282.758H109.87C109.87 282.525 109.825 282.323 109.737 282.152C109.648 281.98 109.513 281.847 109.33 281.753C109.147 281.654 108.907 281.604 108.608 281.604C108.375 281.604 108.171 281.646 107.994 281.729C107.822 281.806 107.687 281.914 107.587 282.052C107.493 282.191 107.446 282.351 107.446 282.534C107.446 282.661 107.473 282.777 107.529 282.882C107.59 282.982 107.681 283.076 107.803 283.165C107.93 283.248 108.093 283.322 108.292 283.389C108.497 283.455 108.746 283.519 109.04 283.58C109.665 283.696 110.235 283.859 110.75 284.069C111.27 284.28 111.685 284.57 111.995 284.941C112.31 285.312 112.468 285.801 112.468 286.41C112.468 286.809 112.376 287.174 112.194 287.506C112.017 287.838 111.759 288.128 111.422 288.377C111.084 288.626 110.68 288.82 110.21 288.958C109.74 289.097 109.208 289.166 108.616 289.166C107.77 289.166 107.053 289.014 106.466 288.709C105.88 288.405 105.437 288.023 105.138 287.564C104.845 287.099 104.698 286.623 104.698 286.136H107.13C107.141 286.435 107.216 286.679 107.354 286.867C107.498 287.055 107.684 287.193 107.911 287.282C108.138 287.365 108.392 287.406 108.674 287.406C108.957 287.406 109.192 287.368 109.38 287.29C109.568 287.213 109.712 287.107 109.812 286.975C109.911 286.836 109.961 286.679 109.961 286.501Z" fill="#969696"/>
<g clip-path="url(#clip1_1145_391)">
<g opacity="0.99">
<path d="M77.7082 80V86.8164H80.8479V90.6371H77.7082V107.858C77.7082 110.453 77.8403 111.903 78.0968 112.2C78.3532 112.496 79.4413 112.648 81.3375 112.648V119.008H76.6357C73.9856 119.008 72.0893 118.896 70.9547 118.664C69.82 118.439 68.8175 117.911 67.9549 117.086C67.0922 116.261 66.5482 115.323 66.3384 114.258C66.1285 113.201 66.0197 110.71 66.0197 106.785V90.6371H63.5095V86.8164H66.0197V80H77.7004H77.7082Z" fill="black"/>
<path d="M109.719 93.8969V103.116C109.719 106.504 109.548 108.979 109.199 110.565C108.849 112.151 108.111 113.617 106.976 114.987C105.841 116.357 104.388 117.366 102.608 118.023C100.829 118.671 98.7847 119 96.4766 119C93.8964 119 91.7204 118.719 89.9329 118.167C88.1454 117.606 86.7543 116.765 85.7673 115.644C84.7803 114.522 84.0731 113.161 83.6457 111.559C83.226 109.957 83.0084 107.562 83.0084 104.366V94.7219C83.0084 91.2216 83.3892 88.4903 84.1586 86.5278C84.928 84.5574 86.3113 82.9795 88.3086 81.794C90.3059 80.6005 92.8628 80.0078 95.9792 80.0078C98.5904 80.0078 100.836 80.3923 102.717 81.1532C104.598 81.9142 106.036 82.9154 107.054 84.1489C108.072 85.3744 108.771 86.648 109.144 87.9536C109.517 89.2592 109.704 91.2456 109.704 93.9129L109.719 93.8969ZM98.0698 91.2617C98.0698 89.3553 97.9609 88.1618 97.7511 87.6652C97.5413 87.1686 97.0905 86.9203 96.3989 86.9203C95.7072 86.9203 95.2487 87.1686 95.0155 87.6652C94.7824 88.1618 94.6658 89.3553 94.6658 91.2617V108.018C94.6658 109.772 94.7824 110.918 95.0155 111.447C95.2487 111.975 95.6994 112.247 96.3678 112.247C97.0361 112.247 97.518 112.007 97.7356 111.519C97.9532 111.03 98.0698 109.989 98.0698 108.387V91.2617Z" fill="black"/>
<path d="M123.716 80V86.8164H111.717V80H123.716ZM123.716 88.8589V119H111.717V88.8589H123.716Z" fill="black"/>
</g>
<path opacity="0.92" d="M138.933 108.434H49V90.5723H141L138.933 108.434Z" fill="#4B4B4B"/>
</g>
</g>
<defs>
<clipPath id="clip0_1145_391">
<rect width="192" height="850" fill="white"/>
</clipPath>
<clipPath id="clip1_1145_391">
<rect width="92" height="39" fill="white" transform="translate(49 80)"/>
</clipPath>
</defs>
</svg>
